<svg id="svg" version="1.1" width="500" height="500" xmlns="http://www.w3.org/2000/svg" xmlns:xlink="http://www.w3.org/1999/xlink" style="display: block;"><g id="svgg"><path id="path0" d="M0.000 197.600 L 0.000 355.200 200.000 355.200 L 400.000 355.200 400.000 197.600 L 400.000 40.000 200.000 40.000 L 0.000 40.000 0.000 197.600 M347.049 103.936 C 351.842 104.394,354.338 105.045,355.991 106.267 C 357.253 107.200,359.742 108.196,361.523 108.481 C 363.305 108.765,366.648 110.214,368.954 111.699 C 371.260 113.185,373.567 114.400,374.081 114.400 C 374.595 114.400,375.606 115.300,376.326 116.400 C 377.047 117.500,378.181 118.400,378.845 118.400 C 383.536 118.400,386.908 127.087,383.483 130.348 C 382.227 131.543,380.574 133.304,379.808 134.260 C 377.629 136.984,372.850 136.658,370.126 133.600 C 368.950 132.280,367.434 131.200,366.757 131.200 C 366.081 131.200,364.661 130.334,363.602 129.275 C 362.543 128.216,360.362 126.916,358.755 126.385 C 357.148 125.855,355.116 124.596,354.239 123.587 C 352.930 122.081,351.503 121.652,346.277 121.189 C 341.950 120.806,338.758 120.013,336.313 118.713 C 331.081 115.931,319.332 115.924,314.112 118.699 C 311.727 119.968,308.456 120.789,304.270 121.171 C 299.417 121.614,297.548 122.150,296.000 123.544 C 294.900 124.534,292.740 125.828,291.200 126.419 C 289.660 127.009,287.382 128.327,286.139 129.346 C 284.895 130.366,283.543 131.200,283.133 131.200 C 282.030 131.200,271.607 141.681,270.404 144.000 C 269.833 145.100,268.906 146.273,268.343 146.606 C 267.780 146.940,266.894 148.560,266.374 150.206 C 265.854 151.853,264.606 154.460,263.601 156.000 C 262.596 157.540,261.331 160.780,260.789 163.200 C 260.248 165.620,259.039 168.860,258.102 170.400 C 255.430 174.795,255.466 217.002,258.146 220.626 C 259.106 221.925,260.303 225.286,260.807 228.094 C 261.392 231.356,262.387 233.922,263.565 235.200 C 264.578 236.300,265.838 238.550,266.366 240.200 C 266.893 241.850,267.647 243.200,268.041 243.200 C 268.436 243.200,269.351 244.345,270.074 245.744 C 270.798 247.143,273.957 250.727,277.095 253.708 C 280.233 256.689,283.714 260.006,284.831 261.080 C 285.947 262.153,288.248 263.414,289.944 263.882 C 291.639 264.350,293.841 265.499,294.837 266.435 C 296.156 267.674,298.353 268.343,302.924 268.897 C 306.806 269.367,310.789 270.453,313.365 271.742 C 318.547 274.335,329.260 274.112,334.800 271.296 C 336.560 270.401,341.035 269.295,344.744 268.839 C 349.402 268.266,352.000 267.536,353.144 266.481 C 354.055 265.641,356.182 264.384,357.872 263.688 C 359.561 262.991,362.018 261.517,363.333 260.411 C 364.647 259.305,366.177 258.400,366.733 258.400 C 367.289 258.400,368.145 257.519,368.635 256.442 C 370.151 253.116,376.660 251.654,381.231 253.613 C 389.197 257.028,387.254 266.069,377.435 271.280 C 376.426 271.816,375.149 272.889,374.598 273.666 C 374.046 274.442,372.246 275.509,370.598 276.035 C 368.949 276.562,366.700 277.812,365.600 278.814 C 364.496 279.819,361.987 280.884,360.000 281.191 C 358.020 281.497,354.991 282.704,353.268 283.874 L 350.137 286.000 322.800 286.000 L 295.463 286.000 292.332 283.874 C 290.609 282.704,287.682 281.505,285.827 281.208 C 283.957 280.909,281.146 279.629,279.517 278.334 C 277.902 277.050,275.948 276.000,275.177 276.000 C 272.880 276.000,254.400 259.763,254.400 257.745 C 254.400 257.379,253.451 256.206,252.291 255.139 C 251.132 254.073,249.516 251.718,248.701 249.906 C 247.886 248.094,246.677 246.162,246.015 245.612 C 245.353 245.063,244.421 243.126,243.944 241.307 C 243.467 239.488,242.244 236.740,241.227 235.200 C 240.196 233.639,239.140 230.467,238.839 228.033 C 238.543 225.631,237.513 221.851,236.550 219.633 C 233.866 213.449,233.844 174.374,236.523 170.970 C 237.636 169.556,238.446 167.015,238.814 163.791 C 239.418 158.500,240.351 156.003,242.113 154.962 C 242.707 154.611,243.429 152.853,243.716 151.054 C 244.017 149.173,245.208 146.680,246.520 145.186 C 247.774 143.758,248.800 142.069,248.800 141.434 C 248.800 138.323,264.927 121.213,270.600 118.305 C 272.250 117.459,273.600 116.454,273.600 116.071 C 273.600 115.687,274.991 114.817,276.690 114.137 C 278.390 113.457,281.062 112.031,282.629 110.968 C 284.196 109.904,287.195 108.799,289.294 108.511 C 291.538 108.204,293.874 107.270,294.965 106.245 C 297.837 103.547,328.674 102.180,347.049 103.936 M37.834 110.413 C 38.962 111.299,40.322 113.369,40.857 115.013 C 41.391 116.656,42.823 119.143,44.038 120.541 C 45.253 121.938,46.490 124.188,46.787 125.541 C 47.084 126.893,47.651 128.000,48.047 128.000 C 48.443 128.000,49.491 129.419,50.376 131.153 C 51.261 132.888,52.888 135.638,53.992 137.265 C 55.097 138.892,56.000 140.830,56.000 141.572 C 56.000 142.314,56.914 143.780,58.031 144.829 C 59.148 145.878,60.447 148.265,60.917 150.133 C 61.402 152.059,62.533 154.027,63.530 154.681 C 64.497 155.314,65.776 157.311,66.372 159.116 C 66.968 160.922,67.771 162.400,68.156 162.400 C 68.542 162.400,69.571 164.067,70.444 166.103 C 71.317 168.140,72.925 170.868,74.016 172.165 C 75.107 173.462,76.000 175.218,76.000 176.067 C 76.000 176.916,76.891 178.385,77.980 179.332 C 79.069 180.279,80.372 182.346,80.876 183.927 C 81.380 185.507,82.592 187.700,83.569 188.800 C 84.546 189.900,85.818 192.060,86.396 193.600 C 86.974 195.140,87.894 196.772,88.441 197.228 C 88.987 197.683,90.007 199.425,90.706 201.099 C 91.406 202.773,92.883 205.218,93.989 206.533 C 95.095 207.847,96.000 209.603,96.000 210.434 C 96.000 211.264,97.028 213.127,98.286 214.572 C 99.543 216.017,101.011 218.550,101.548 220.200 C 102.085 221.850,102.869 223.200,103.290 223.200 C 103.712 223.200,104.769 224.861,105.639 226.891 C 106.994 230.052,107.477 230.512,109.010 230.102 C 109.995 229.838,111.216 229.617,111.725 229.611 C 112.233 229.605,113.208 227.960,113.892 225.955 C 114.575 223.950,116.049 221.223,117.167 219.894 C 118.285 218.565,119.200 216.834,119.200 216.049 C 119.200 215.263,120.266 213.279,121.568 211.640 C 122.871 210.001,124.172 207.881,124.460 206.930 C 124.748 205.978,125.604 204.480,126.362 203.600 C 127.121 202.720,128.209 200.740,128.781 199.200 C 129.352 197.660,130.517 195.781,131.368 195.025 C 132.219 194.269,133.291 192.289,133.750 190.625 C 134.210 188.961,135.624 186.417,136.893 184.972 C 138.162 183.527,139.200 181.664,139.200 180.834 C 139.200 180.003,140.077 178.281,141.148 177.008 C 142.219 175.735,143.698 173.187,144.435 171.346 C 145.171 169.506,146.053 168.000,146.394 168.000 C 146.735 168.000,147.821 166.013,148.806 163.584 C 149.792 161.155,151.025 158.905,151.546 158.584 C 152.068 158.263,152.971 156.819,153.555 155.375 C 154.138 153.931,155.647 151.451,156.908 149.865 C 158.168 148.278,159.200 146.337,159.200 145.551 C 159.200 144.766,160.109 143.042,161.221 141.721 C 162.332 140.400,163.642 138.123,164.132 136.660 C 164.621 135.197,165.675 133.275,166.473 132.389 C 167.271 131.503,168.460 129.494,169.116 127.925 C 169.771 126.356,170.850 124.622,171.513 124.072 C 172.176 123.522,173.148 121.751,173.674 120.136 C 174.518 117.539,176.267 114.952,180.386 110.200 C 182.309 107.983,195.787 108.173,198.692 110.458 L 200.800 112.116 200.800 197.534 C 200.800 295.938,201.776 285.658,192.375 286.257 C 186.266 286.646,183.706 286.106,181.580 283.980 C 180.032 282.432,180.000 281.052,180.000 216.852 C 180.000 146.212,179.633 140.192,175.997 151.209 C 175.400 153.018,174.259 154.847,173.461 155.274 C 172.663 155.701,171.602 157.671,171.104 159.651 C 170.605 161.631,169.528 163.720,168.710 164.293 C 167.892 164.866,166.682 166.867,166.021 168.740 C 165.360 170.613,163.915 173.221,162.810 174.534 C 161.704 175.848,160.800 177.588,160.800 178.400 C 160.800 179.212,159.949 180.895,158.909 182.139 C 157.870 183.382,156.765 185.212,156.454 186.204 C 156.144 187.197,155.066 188.997,154.061 190.204 C 153.055 191.412,151.809 193.697,151.293 195.282 C 150.776 196.868,149.498 198.968,148.453 199.950 C 147.408 200.932,146.323 202.960,146.042 204.456 C 145.762 205.952,144.467 208.341,143.166 209.766 C 141.865 211.191,140.800 212.942,140.800 213.658 C 140.800 214.374,139.727 216.543,138.415 218.480 C 137.103 220.416,136.023 222.422,136.015 222.939 C 136.007 223.455,135.149 224.895,134.109 226.139 C 133.070 227.382,131.958 229.234,131.639 230.253 C 131.320 231.271,130.078 233.251,128.880 234.653 C 127.682 236.054,126.261 238.724,125.723 240.587 C 125.184 242.450,124.049 244.346,123.199 244.801 C 122.349 245.255,121.275 247.035,120.812 248.755 C 119.437 253.863,116.149 256.006,109.739 255.972 C 101.755 255.929,101.285 255.518,94.068 242.257 C 92.947 240.198,91.690 238.303,91.274 238.045 C 90.857 237.788,90.079 236.233,89.544 234.589 C 89.009 232.945,87.543 230.417,86.286 228.972 C 85.028 227.527,84.000 225.664,84.000 224.834 C 84.000 224.003,83.107 222.262,82.016 220.965 C 80.925 219.668,79.334 216.980,78.482 214.992 C 77.630 213.003,76.537 211.132,76.054 210.833 C 75.571 210.535,74.663 209.064,74.037 207.564 C 73.410 206.065,72.173 204.060,71.288 203.111 C 70.404 202.161,69.446 200.319,69.160 199.017 C 68.874 197.715,67.781 195.903,66.731 194.990 C 65.681 194.077,64.594 192.113,64.314 190.625 C 64.035 189.138,62.590 186.464,61.103 184.684 C 59.617 182.905,58.400 180.970,58.400 180.386 C 58.400 179.801,57.500 178.253,56.400 176.946 C 55.300 175.639,54.400 174.162,54.400 173.665 C 54.400 173.168,53.140 170.930,51.600 168.691 C 50.060 166.452,48.800 163.994,48.800 163.229 C 48.800 162.464,47.709 160.696,46.377 159.301 C 45.044 157.907,43.732 155.662,43.463 154.314 C 43.193 152.966,42.449 151.661,41.808 151.416 C 41.168 151.170,39.919 149.311,39.033 147.285 C 36.258 140.939,36.115 144.217,36.056 215.355 L 36.000 283.909 34.222 285.155 C 32.077 286.657,22.373 286.868,19.747 285.469 C 15.904 283.422,16.052 286.935,16.025 197.517 L 16.000 113.034 17.962 110.917 C 20.634 108.033,34.366 107.685,37.834 110.413 " stroke="none" fill="#292929" fill-rule="evenodd"></path><path id="path1" d="M302.611 103.968 C 298.256 104.369,296.361 104.933,294.965 106.245 C 293.874 107.270,291.538 108.204,289.294 108.511 C 287.195 108.799,284.196 109.904,282.629 110.968 C 281.062 112.031,278.390 113.457,276.690 114.137 C 274.991 114.817,273.600 115.687,273.600 116.071 C 273.600 116.454,272.250 117.459,270.600 118.305 C 264.927 121.213,248.800 138.323,248.800 141.434 C 248.800 142.069,247.774 143.758,246.520 145.186 C 245.208 146.680,244.017 149.173,243.716 151.054 C 243.429 152.853,242.707 154.611,242.113 154.962 C 240.351 156.003,239.418 158.500,238.814 163.791 C 238.446 167.015,237.636 169.556,236.523 170.970 C 233.844 174.374,233.866 213.449,236.550 219.633 C 237.513 221.851,238.543 225.631,238.839 228.033 C 239.140 230.467,240.196 233.639,241.227 235.200 C 242.244 236.740,243.467 239.488,243.944 241.307 C 244.421 243.126,245.353 245.063,246.015 245.612 C 246.677 246.162,247.886 248.094,248.701 249.906 C 249.516 251.718,251.132 254.073,252.291 255.139 C 253.451 256.206,254.400 257.379,254.400 257.745 C 254.400 259.763,272.880 276.000,275.177 276.000 C 275.948 276.000,277.902 277.050,279.517 278.334 C 281.146 279.629,283.957 280.909,285.827 281.208 C 287.682 281.505,290.609 282.704,292.332 283.874 L 295.463 286.000 322.800 286.000 L 350.137 286.000 353.268 283.874 C 354.991 282.704,358.020 281.497,360.000 281.191 C 361.987 280.884,364.496 279.819,365.600 278.814 C 366.700 277.812,368.949 276.562,370.598 276.035 C 372.246 275.509,374.046 274.442,374.598 273.666 C 375.149 272.889,376.426 271.816,377.435 271.280 C 387.254 266.069,389.197 257.028,381.231 253.613 C 376.660 251.654,370.151 253.116,368.635 256.442 C 368.145 257.519,367.289 258.400,366.733 258.400 C 366.177 258.400,364.647 259.305,363.333 260.411 C 362.018 261.517,359.561 262.991,357.872 263.688 C 356.182 264.384,354.055 265.641,353.144 266.481 C 352.000 267.536,349.402 268.266,344.744 268.839 C 341.035 269.295,336.560 270.401,334.800 271.296 C 329.260 274.112,318.547 274.335,313.365 271.742 C 310.789 270.453,306.806 269.367,302.924 268.897 C 298.353 268.343,296.156 267.674,294.837 266.435 C 293.841 265.499,291.639 264.350,289.944 263.882 C 288.248 263.414,285.947 262.153,284.831 261.080 C 283.714 260.006,280.233 256.689,277.095 253.708 C 273.957 250.727,270.798 247.143,270.074 245.744 C 269.351 244.345,268.436 243.200,268.041 243.200 C 267.647 243.200,266.893 241.850,266.366 240.200 C 265.838 238.550,264.578 236.300,263.565 235.200 C 262.387 233.922,261.392 231.356,260.807 228.094 C 260.303 225.286,259.106 221.925,258.146 220.626 C 255.466 217.002,255.430 174.795,258.102 170.400 C 259.039 168.860,260.248 165.620,260.789 163.200 C 261.331 160.780,262.596 157.540,263.601 156.000 C 264.606 154.460,265.854 151.853,266.374 150.206 C 266.894 148.560,267.780 146.940,268.343 146.606 C 268.906 146.273,269.833 145.100,270.404 144.000 C 271.607 141.681,282.030 131.200,283.133 131.200 C 283.543 131.200,284.895 130.366,286.139 129.346 C 287.382 128.327,289.660 127.009,291.200 126.419 C 292.740 125.828,294.900 124.534,296.000 123.544 C 297.548 122.150,299.417 121.614,304.270 121.171 C 308.456 120.789,311.727 119.968,314.112 118.699 C 319.332 115.924,331.081 115.931,336.313 118.713 C 338.758 120.013,341.950 120.806,346.277 121.189 C 351.503 121.652,352.930 122.081,354.239 123.587 C 355.116 124.596,357.148 125.855,358.755 126.385 C 360.362 126.916,362.543 128.216,363.602 129.275 C 364.661 130.334,366.081 131.200,366.757 131.200 C 367.434 131.200,368.950 132.280,370.126 133.600 C 372.850 136.658,377.629 136.984,379.808 134.260 C 380.574 133.304,382.227 131.543,383.483 130.348 C 386.908 127.087,383.536 118.400,378.845 118.400 C 378.181 118.400,377.047 117.500,376.326 116.400 C 375.606 115.300,374.595 114.400,374.081 114.400 C 373.567 114.400,371.260 113.185,368.954 111.699 C 366.648 110.214,363.305 108.765,361.523 108.481 C 359.742 108.196,357.253 107.200,355.991 106.267 C 352.290 103.530,321.677 102.212,302.611 103.968 M351.591 107.839 C 353.785 108.851,357.196 110.041,359.170 110.483 C 361.144 110.925,364.360 112.348,366.317 113.644 C 368.273 114.940,370.297 116.000,370.813 116.000 C 371.330 116.000,372.437 116.757,373.274 117.682 C 374.111 118.607,375.815 119.891,377.061 120.535 C 381.000 122.572,382.081 126.676,379.552 129.992 C 376.979 133.366,374.317 133.138,368.800 129.071 C 366.820 127.611,363.580 125.555,361.600 124.502 C 359.620 123.448,356.574 121.824,354.831 120.893 C 353.088 119.962,350.841 119.200,349.838 119.200 C 348.835 119.200,345.221 118.210,341.807 117.000 C 333.457 114.040,316.763 113.825,309.600 116.585 C 307.180 117.518,303.104 118.699,300.543 119.209 C 296.250 120.065,292.910 121.701,284.400 127.118 C 276.143 132.373,266.798 142.200,263.601 148.988 C 262.925 150.425,261.844 152.500,261.199 153.600 C 251.024 170.963,249.602 209.301,258.336 230.800 C 262.536 241.138,268.319 249.844,275.340 256.400 C 284.037 264.520,292.557 269.678,299.103 270.784 C 301.018 271.107,304.254 272.118,306.293 273.029 C 311.452 275.336,330.240 275.940,336.800 274.010 C 339.220 273.298,344.034 272.008,347.497 271.143 C 350.961 270.278,354.784 268.866,355.993 268.005 C 357.202 267.144,359.179 266.064,360.387 265.605 C 362.694 264.728,365.269 262.915,370.338 258.601 C 378.833 251.370,387.968 257.695,380.160 265.400 C 376.872 268.644,368.774 274.400,367.497 274.400 C 367.065 274.400,365.529 275.272,364.085 276.337 C 362.641 277.402,359.601 278.711,357.330 279.246 C 355.058 279.780,351.800 280.921,350.089 281.781 C 342.411 285.642,302.158 285.846,296.369 282.053 C 295.368 281.397,292.805 280.429,290.674 279.902 C 232.348 265.471,218.134 161.749,269.200 123.200 C 271.240 121.660,274.054 119.462,275.454 118.314 C 276.854 117.167,279.328 115.797,280.950 115.269 C 282.573 114.741,284.733 113.662,285.750 112.871 C 286.768 112.080,289.580 110.972,292.000 110.409 C 294.420 109.846,297.480 108.833,298.800 108.159 C 303.174 105.923,305.834 105.704,326.800 105.853 C 346.648 105.993,347.783 106.084,351.591 107.839 M17.962 110.917 L 16.000 113.034 16.025 197.517 C 16.052 286.935,15.904 283.422,19.747 285.469 C 22.373 286.868,32.077 286.657,34.222 285.155 L 36.000 283.909 36.056 215.355 C 36.115 144.217,36.258 140.939,39.033 147.285 C 39.919 149.311,41.168 151.170,41.808 151.416 C 42.449 151.661,43.193 152.966,43.463 154.314 C 43.732 155.662,45.044 157.907,46.377 159.301 C 47.709 160.696,48.800 162.464,48.800 163.229 C 48.800 163.994,50.060 166.452,51.600 168.691 C 53.140 170.930,54.400 173.168,54.400 173.665 C 54.400 174.162,55.300 175.639,56.400 176.946 C 57.500 178.253,58.400 179.801,58.400 180.386 C 58.400 180.970,59.617 182.905,61.103 184.684 C 62.590 186.464,64.035 189.138,64.314 190.625 C 64.594 192.113,65.681 194.077,66.731 194.990 C 67.781 195.903,68.874 197.715,69.160 199.017 C 69.446 200.319,70.404 202.161,71.288 203.111 C 72.173 204.060,73.410 206.065,74.037 207.564 C 74.663 209.064,75.571 210.535,76.054 210.833 C 76.537 211.132,77.630 213.003,78.482 214.992 C 79.334 216.980,80.925 219.668,82.016 220.965 C 83.107 222.262,84.000 224.003,84.000 224.834 C 84.000 225.664,85.028 227.527,86.286 228.972 C 87.543 230.417,89.009 232.945,89.544 234.589 C 90.079 236.233,90.857 237.788,91.274 238.045 C 91.690 238.303,92.947 240.198,94.068 242.257 C 101.285 255.518,101.755 255.929,109.739 255.972 C 116.149 256.006,119.437 253.863,120.812 248.755 C 121.275 247.035,122.349 245.255,123.199 244.801 C 124.049 244.346,125.184 242.450,125.723 240.587 C 126.261 238.724,127.682 236.054,128.880 234.653 C 130.078 233.251,131.320 231.271,131.639 230.253 C 131.958 229.234,133.070 227.382,134.109 226.139 C 135.149 224.895,136.007 223.455,136.015 222.939 C 136.023 222.422,137.103 220.416,138.415 218.480 C 139.727 216.543,140.800 214.374,140.800 213.658 C 140.800 212.942,141.865 211.191,143.166 209.766 C 144.467 208.341,145.762 205.952,146.042 204.456 C 146.323 202.960,147.408 200.932,148.453 199.950 C 149.498 198.968,150.776 196.868,151.293 195.282 C 151.809 193.697,153.055 191.412,154.061 190.204 C 155.066 188.997,156.144 187.197,156.454 186.204 C 156.765 185.212,157.870 183.382,158.909 182.139 C 159.949 180.895,160.800 179.212,160.800 178.400 C 160.800 177.588,161.704 175.848,162.810 174.534 C 163.915 173.221,165.360 170.613,166.021 168.740 C 166.682 166.867,167.892 164.866,168.710 164.293 C 169.528 163.720,170.605 161.631,171.104 159.651 C 171.602 157.671,172.663 155.701,173.461 155.274 C 174.259 154.847,175.400 153.018,175.997 151.209 C 179.633 140.192,180.000 146.212,180.000 216.852 C 180.000 281.052,180.032 282.432,181.580 283.980 C 183.706 286.106,186.266 286.646,192.375 286.257 C 201.776 285.658,200.800 295.938,200.800 197.534 L 200.800 112.116 198.692 110.458 C 195.787 108.173,182.309 107.983,180.386 110.200 C 176.267 114.952,174.518 117.539,173.674 120.136 C 173.148 121.751,172.176 123.522,171.513 124.072 C 170.850 124.622,169.771 126.356,169.116 127.925 C 168.460 129.494,167.271 131.503,166.473 132.389 C 165.675 133.275,164.621 135.197,164.132 136.660 C 163.642 138.123,162.332 140.400,161.221 141.721 C 160.109 143.042,159.200 144.766,159.200 145.551 C 159.200 146.337,158.168 148.278,156.908 149.865 C 155.647 151.451,154.138 153.931,153.555 155.375 C 152.971 156.819,152.068 158.263,151.546 158.584 C 151.025 158.905,149.792 161.155,148.806 163.584 C 147.821 166.013,146.735 168.000,146.394 168.000 C 146.053 168.000,145.171 169.506,144.435 171.346 C 143.698 173.187,142.219 175.735,141.148 177.008 C 140.077 178.281,139.200 180.003,139.200 180.834 C 139.200 181.664,138.162 183.527,136.893 184.972 C 135.624 186.417,134.210 188.961,133.750 190.625 C 133.291 192.289,132.219 194.269,131.368 195.025 C 130.517 195.781,129.352 197.660,128.781 199.200 C 128.209 200.740,127.121 202.720,126.362 203.600 C 125.604 204.480,124.748 205.978,124.460 206.930 C 124.172 207.881,122.871 210.001,121.568 211.640 C 120.266 213.279,119.200 215.263,119.200 216.049 C 119.200 216.834,118.285 218.565,117.167 219.894 C 116.049 221.223,114.575 223.950,113.892 225.955 C 113.208 227.960,112.233 229.605,111.725 229.611 C 111.216 229.617,109.995 229.838,109.010 230.102 C 107.477 230.512,106.994 230.052,105.639 226.891 C 104.769 224.861,103.712 223.200,103.290 223.200 C 102.869 223.200,102.085 221.850,101.548 220.200 C 101.011 218.550,99.543 216.017,98.286 214.572 C 97.028 213.127,96.000 211.264,96.000 210.434 C 96.000 209.603,95.095 207.847,93.989 206.533 C 92.883 205.218,91.406 202.773,90.706 201.099 C 90.007 199.425,88.987 197.683,88.441 197.228 C 87.894 196.772,86.974 195.140,86.396 193.600 C 85.818 192.060,84.546 189.900,83.569 188.800 C 82.592 187.700,81.380 185.507,80.876 183.927 C 80.372 182.346,79.069 180.279,77.980 179.332 C 76.891 178.385,76.000 176.916,76.000 176.067 C 76.000 175.218,75.107 173.462,74.016 172.165 C 72.925 170.868,71.317 168.140,70.444 166.103 C 69.571 164.067,68.542 162.400,68.156 162.400 C 67.771 162.400,66.968 160.922,66.372 159.116 C 65.776 157.311,64.497 155.314,63.530 154.681 C 62.533 154.027,61.402 152.059,60.917 150.133 C 60.447 148.265,59.148 145.878,58.031 144.829 C 56.914 143.780,56.000 142.314,56.000 141.572 C 56.000 140.830,55.097 138.892,53.992 137.265 C 52.888 135.638,51.261 132.888,50.376 131.153 C 49.491 129.419,48.443 128.000,48.047 128.000 C 47.651 128.000,47.084 126.893,46.787 125.541 C 46.490 124.188,45.253 121.938,44.038 120.541 C 42.823 119.143,41.391 116.656,40.857 115.013 C 38.709 108.415,22.901 105.587,17.962 110.917 M34.553 111.949 C 36.331 113.347,38.601 116.934,43.738 126.463 C 44.693 128.235,45.938 130.243,46.504 130.925 C 47.638 132.291,55.948 147.024,58.933 152.960 C 59.973 155.028,61.192 156.948,61.642 157.226 C 62.092 157.504,63.300 159.412,64.328 161.466 C 66.368 165.542,69.569 171.139,74.473 179.200 C 76.213 182.060,78.208 185.654,78.907 187.187 C 79.606 188.719,80.868 190.851,81.712 191.924 C 82.556 192.998,83.959 195.344,84.830 197.138 C 85.700 198.932,87.846 202.740,89.597 205.600 C 91.349 208.460,93.288 211.880,93.906 213.200 C 94.524 214.520,95.968 216.840,97.115 218.355 C 98.262 219.871,99.200 221.553,99.200 222.094 C 99.200 222.635,100.026 224.095,101.036 225.339 C 102.045 226.582,103.541 229.132,104.359 231.005 C 107.333 237.808,111.569 237.102,115.743 229.106 C 119.608 221.704,122.768 215.997,125.880 210.800 C 127.461 208.160,129.193 205.100,129.729 204.000 C 130.748 201.909,134.110 195.998,138.717 188.200 C 141.117 184.139,151.575 165.403,155.152 158.757 C 155.876 157.413,157.216 155.253,158.131 153.957 C 159.046 152.661,160.520 150.160,161.407 148.400 C 162.934 145.371,164.429 142.656,170.578 131.748 C 172.020 129.190,173.940 125.746,174.844 124.095 C 175.749 122.443,177.369 119.681,178.444 117.957 C 179.520 116.233,180.763 114.113,181.206 113.246 C 182.558 110.602,190.655 109.457,194.762 111.328 L 196.800 112.257 196.800 197.230 C 196.800 269.398,196.630 282.345,195.671 283.141 C 193.974 284.549,189.483 285.038,187.000 284.084 L 184.800 283.240 184.741 213.420 C 184.708 175.019,184.438 142.009,184.141 140.065 C 183.530 136.071,181.963 134.946,180.897 137.735 C 180.505 138.761,179.383 140.320,178.404 141.200 C 177.425 142.080,175.643 144.780,174.443 147.200 C 173.244 149.620,169.621 156.280,166.393 162.000 C 163.165 167.720,159.843 173.660,159.010 175.200 C 158.177 176.740,156.097 180.340,154.387 183.200 C 152.677 186.060,150.345 190.200,149.205 192.400 C 148.065 194.600,145.977 198.414,144.566 200.876 C 142.350 204.741,134.256 219.240,130.329 226.377 C 129.630 227.648,128.386 229.703,127.565 230.944 C 126.743 232.185,125.113 235.000,123.941 237.200 C 116.275 251.593,114.038 254.400,110.238 254.400 C 105.425 254.400,103.365 252.391,97.526 242.000 C 95.301 238.040,92.059 232.460,90.322 229.600 C 88.585 226.740,86.623 223.320,85.962 222.000 C 85.301 220.680,83.182 216.900,81.252 213.600 C 79.322 210.300,75.789 204.180,73.400 200.000 C 68.629 191.653,64.377 184.358,60.344 177.600 C 58.900 175.180,55.704 169.600,53.242 165.200 C 50.779 160.800,47.348 154.860,45.616 152.000 C 43.884 149.140,41.558 145.115,40.448 143.057 C 38.213 138.909,37.523 138.246,36.282 139.053 C 33.679 140.744,33.600 142.919,33.600 213.117 L 33.600 283.138 30.508 283.971 C 27.310 284.832,22.746 284.361,21.000 282.989 C 19.184 281.563,19.578 112.325,21.400 111.264 C 23.942 109.784,32.358 110.222,34.553 111.949 " stroke="none" fill="#7e7e7e" fill-rule="evenodd"></path><path id="path2" d="M303.600 106.319 C 302.280 106.656,300.120 107.484,298.800 108.159 C 297.480 108.833,294.420 109.846,292.000 110.409 C 289.580 110.972,286.768 112.080,285.750 112.871 C 284.733 113.662,282.573 114.741,280.950 115.269 C 279.328 115.797,276.854 117.167,275.454 118.314 C 274.054 119.462,271.240 121.660,269.200 123.200 C 218.134 161.749,232.348 265.471,290.674 279.902 C 292.805 280.429,295.368 281.397,296.369 282.053 C 302.158 285.846,342.411 285.642,350.089 281.781 C 351.800 280.921,355.058 279.780,357.330 279.246 C 359.601 278.711,362.641 277.402,364.085 276.337 C 365.529 275.272,367.065 274.400,367.497 274.400 C 368.774 274.400,376.872 268.644,380.160 265.400 C 387.968 257.695,378.833 251.370,370.338 258.601 C 365.269 262.915,362.694 264.728,360.387 265.605 C 359.179 266.064,357.202 267.144,355.993 268.005 C 354.784 268.866,350.961 270.278,347.497 271.143 C 344.034 272.008,339.220 273.298,336.800 274.010 C 330.240 275.940,311.452 275.336,306.293 273.029 C 304.254 272.118,301.018 271.107,299.103 270.784 C 292.557 269.678,284.037 264.520,275.340 256.400 C 268.319 249.844,262.536 241.138,258.336 230.800 C 249.602 209.301,251.024 170.963,261.199 153.600 C 261.844 152.500,262.925 150.425,263.601 148.988 C 269.065 137.385,288.679 121.573,300.543 119.209 C 303.104 118.699,307.180 117.518,309.600 116.585 C 316.763 113.825,333.457 114.040,341.807 117.000 C 345.221 118.210,348.835 119.200,349.838 119.200 C 350.841 119.200,353.088 119.962,354.831 120.893 C 356.574 121.824,359.620 123.448,361.600 124.502 C 363.580 125.555,366.820 127.611,368.800 129.071 C 374.317 133.138,376.979 133.366,379.552 129.992 C 382.081 126.676,381.000 122.572,377.061 120.535 C 375.815 119.891,374.111 118.607,373.274 117.682 C 372.437 116.757,371.330 116.000,370.813 116.000 C 370.297 116.000,368.273 114.940,366.317 113.644 C 364.360 112.348,361.144 110.925,359.170 110.483 C 357.196 110.041,353.785 108.851,351.591 107.839 C 347.400 105.908,309.862 104.718,303.600 106.319 M346.575 109.122 C 348.651 110.175,352.494 111.286,355.115 111.590 C 358.219 111.950,360.355 112.666,361.238 113.642 C 361.983 114.466,363.869 115.561,365.428 116.075 C 366.987 116.590,369.851 118.223,371.792 119.705 C 373.734 121.187,375.806 122.400,376.398 122.400 C 377.581 122.400,378.818 126.676,378.012 127.980 C 376.928 129.734,372.383 128.792,368.457 126.000 C 366.291 124.460,364.151 123.200,363.703 123.200 C 363.254 123.200,361.949 122.301,360.802 121.202 C 359.442 119.899,357.092 118.904,354.042 118.340 C 351.471 117.865,348.375 116.742,347.162 115.846 C 342.235 112.203,308.869 112.249,302.950 115.907 C 301.442 116.839,298.286 117.967,295.936 118.412 C 293.439 118.886,290.820 120.006,289.632 121.108 C 288.514 122.145,286.690 123.207,285.577 123.468 C 284.464 123.729,282.329 125.035,280.833 126.371 C 279.336 127.707,277.833 128.800,277.492 128.800 C 276.941 128.800,270.280 135.294,266.414 139.600 C 265.624 140.480,264.356 142.460,263.595 144.000 C 262.835 145.540,261.579 147.520,260.805 148.400 C 260.031 149.280,258.936 151.440,258.372 153.200 C 257.809 154.960,256.666 157.323,255.833 158.452 C 255.000 159.580,253.836 163.180,253.246 166.452 C 252.657 169.723,251.576 173.784,250.845 175.475 C 248.920 179.929,249.313 212.566,251.342 216.800 C 252.081 218.340,252.927 221.507,253.223 223.838 C 253.518 226.169,254.804 230.032,256.080 232.423 C 257.356 234.814,258.400 237.181,258.400 237.684 C 258.400 240.137,266.500 251.185,272.800 257.325 C 275.220 259.683,278.103 262.498,279.207 263.581 C 280.311 264.663,282.471 265.979,284.007 266.506 C 285.543 267.032,287.566 268.275,288.503 269.268 C 289.610 270.442,291.568 271.249,294.103 271.577 C 296.246 271.854,298.540 272.418,299.200 272.830 C 304.596 276.200,305.066 276.290,319.200 276.628 C 335.019 277.008,343.574 276.119,346.931 273.747 C 348.179 272.865,350.883 271.913,352.940 271.632 C 355.312 271.307,357.768 270.256,359.650 268.760 C 361.284 267.462,363.282 266.400,364.092 266.400 C 364.901 266.400,366.153 265.500,366.874 264.400 C 367.594 263.300,368.556 262.400,369.010 262.400 C 369.464 262.400,371.414 261.106,373.344 259.525 C 377.253 256.322,378.770 256.374,379.441 259.734 C 379.948 262.272,376.247 266.615,371.497 269.055 C 370.120 269.762,368.808 270.826,368.580 271.419 C 368.353 272.012,366.599 272.959,364.683 273.524 C 362.767 274.090,360.445 275.249,359.522 276.101 C 358.543 277.005,355.733 277.990,352.775 278.466 C 349.986 278.915,345.881 280.074,343.652 281.041 C 337.474 283.723,306.099 283.729,301.200 281.050 C 299.440 280.087,295.673 278.888,292.829 278.384 C 289.579 277.808,287.288 276.940,286.663 276.047 C 286.116 275.266,283.943 274.146,281.834 273.558 C 279.725 272.969,277.344 271.658,276.542 270.644 C 275.740 269.630,274.614 268.800,274.040 268.800 C 272.231 268.800,256.013 252.079,255.986 250.186 C 255.979 249.644,255.104 248.377,254.043 247.371 C 252.982 246.365,251.878 244.467,251.589 243.152 C 251.301 241.837,250.242 239.780,249.237 238.581 C 248.232 237.381,246.989 234.420,246.474 232.000 C 245.960 229.580,244.846 226.160,243.998 224.400 C 240.018 216.135,239.671 173.484,243.536 167.585 C 244.240 166.511,245.380 163.195,246.069 160.216 C 246.759 157.237,248.195 153.654,249.261 152.253 C 250.328 150.853,251.200 149.192,251.200 148.563 C 251.200 147.935,252.323 146.021,253.695 144.310 C 255.067 142.600,256.538 140.225,256.962 139.033 C 257.386 137.841,258.423 136.647,259.265 136.379 C 260.107 136.112,260.994 135.104,261.237 134.139 C 261.479 133.175,262.740 131.775,264.038 131.030 C 265.337 130.284,266.400 129.153,266.400 128.515 C 266.400 127.878,267.446 126.992,268.725 126.546 C 270.003 126.100,271.287 124.985,271.578 124.068 C 271.870 123.151,272.596 122.400,273.193 122.400 C 273.789 122.400,275.877 121.179,277.832 119.687 C 279.786 118.195,282.497 116.730,283.855 116.432 C 285.214 116.133,287.268 115.147,288.421 114.241 C 289.574 113.334,293.049 112.109,296.144 111.520 C 299.239 110.930,302.902 109.747,304.285 108.890 C 308.544 106.252,341.273 106.432,346.575 109.122 M21.400 111.264 C 19.578 112.325,19.184 281.563,21.000 282.989 C 22.746 284.361,27.310 284.832,30.508 283.971 L 33.600 283.138 33.600 213.117 C 33.600 142.919,33.679 140.744,36.282 139.053 C 37.523 138.246,38.213 138.909,40.448 143.057 C 41.558 145.115,43.884 149.140,45.616 152.000 C 47.348 154.860,50.779 160.800,53.242 165.200 C 55.704 169.600,58.900 175.180,60.344 177.600 C 64.377 184.358,68.629 191.653,73.400 200.000 C 75.789 204.180,79.322 210.300,81.252 213.600 C 83.182 216.900,85.301 220.680,85.962 222.000 C 86.623 223.320,88.585 226.740,90.322 229.600 C 92.059 232.460,95.301 238.040,97.526 242.000 C 103.365 252.391,105.425 254.400,110.238 254.400 C 114.038 254.400,116.275 251.593,123.941 237.200 C 125.113 235.000,126.743 232.185,127.565 230.944 C 128.386 229.703,129.630 227.648,130.329 226.377 C 134.256 219.240,142.350 204.741,144.566 200.876 C 145.977 198.414,148.065 194.600,149.205 192.400 C 150.345 190.200,152.677 186.060,154.387 183.200 C 156.097 180.340,158.177 176.740,159.010 175.200 C 159.843 173.660,163.165 167.720,166.393 162.000 C 169.621 156.280,173.244 149.620,174.443 147.200 C 175.643 144.780,177.425 142.080,178.404 141.200 C 179.383 140.320,180.505 138.761,180.897 137.735 C 181.963 134.946,183.530 136.071,184.141 140.065 C 184.438 142.009,184.708 175.019,184.741 213.420 L 184.800 283.240 187.000 284.084 C 189.483 285.038,193.974 284.549,195.671 283.141 C 196.630 282.345,196.800 269.398,196.800 197.230 L 196.800 112.257 194.762 111.328 C 190.655 109.457,182.558 110.602,181.206 113.246 C 180.763 114.113,179.520 116.233,178.444 117.957 C 177.369 119.681,175.749 122.443,174.844 124.095 C 173.940 125.746,172.020 129.190,170.578 131.748 C 164.429 142.656,162.934 145.371,161.407 148.400 C 160.520 150.160,159.046 152.661,158.131 153.957 C 157.216 155.253,155.876 157.413,155.152 158.757 C 151.575 165.403,141.117 184.139,138.717 188.200 C 134.110 195.998,130.748 201.909,129.729 204.000 C 129.193 205.100,127.461 208.160,125.880 210.800 C 122.768 215.997,119.608 221.704,115.743 229.106 C 111.569 237.102,107.333 237.808,104.359 231.005 C 103.541 229.132,102.045 226.582,101.036 225.339 C 100.026 224.095,99.200 222.635,99.200 222.094 C 99.200 221.553,98.262 219.871,97.115 218.355 C 95.968 216.840,94.524 214.520,93.906 213.200 C 93.288 211.880,91.349 208.460,89.597 205.600 C 87.846 202.740,85.700 198.932,84.830 197.138 C 83.959 195.344,82.556 192.998,81.712 191.924 C 80.868 190.851,79.606 188.719,78.907 187.187 C 78.208 185.654,76.213 182.060,74.473 179.200 C 69.569 171.139,66.368 165.542,64.328 161.466 C 63.300 159.412,62.092 157.504,61.642 157.226 C 61.192 156.948,59.973 155.028,58.933 152.960 C 55.948 147.024,47.638 132.291,46.504 130.925 C 45.938 130.243,44.693 128.235,43.738 126.463 C 35.462 111.112,34.739 110.389,27.692 110.424 C 25.001 110.438,22.170 110.816,21.400 111.264 M34.220 115.000 C 35.093 116.650,36.759 119.800,37.922 122.000 C 39.085 124.200,40.507 126.360,41.082 126.800 C 41.657 127.240,42.791 129.346,43.603 131.480 C 44.415 133.614,45.736 135.771,46.539 136.273 C 47.343 136.774,48.000 137.653,48.000 138.224 C 48.000 139.563,50.953 145.368,51.816 145.726 C 52.179 145.877,53.225 147.440,54.141 149.200 C 58.427 157.431,60.086 160.373,61.103 161.539 C 61.708 162.232,62.926 164.464,63.811 166.497 C 64.695 168.530,65.809 170.435,66.287 170.730 C 66.764 171.025,67.898 172.947,68.806 175.001 C 69.715 177.055,71.165 179.394,72.029 180.199 C 72.893 181.004,73.600 182.341,73.600 183.170 C 73.600 183.999,74.505 185.753,75.611 187.067 C 76.717 188.382,78.197 190.833,78.900 192.515 C 79.603 194.198,80.810 196.017,81.583 196.558 C 82.356 197.100,83.197 198.585,83.452 199.860 C 83.707 201.134,84.785 203.217,85.848 204.488 C 86.911 205.760,88.060 207.692,88.402 208.781 C 88.744 209.871,90.233 212.521,91.711 214.671 C 93.190 216.821,94.400 219.059,94.400 219.644 C 94.400 220.230,95.046 221.180,95.836 221.755 C 96.626 222.330,97.917 224.514,98.706 226.609 C 99.494 228.704,100.780 230.761,101.564 231.181 C 102.348 231.600,103.199 232.996,103.457 234.283 C 103.714 235.570,104.783 237.621,105.831 238.840 L 107.738 241.057 110.869 239.528 C 113.268 238.357,114.581 236.878,116.484 233.200 C 117.851 230.560,120.089 226.420,121.458 224.000 C 122.827 221.580,124.885 217.710,126.032 215.400 C 127.179 213.090,128.384 211.200,128.710 211.200 C 129.426 211.200,132.000 205.967,132.000 204.512 C 132.000 203.944,132.870 202.662,133.932 201.664 C 134.995 200.665,136.087 198.963,136.358 197.881 C 136.630 196.800,137.920 194.440,139.226 192.637 C 140.532 190.835,141.600 188.902,141.600 188.341 C 141.600 187.781,142.509 186.242,143.621 184.921 C 144.732 183.600,146.050 181.323,146.549 179.860 C 147.047 178.397,148.298 176.182,149.328 174.938 C 150.358 173.694,151.427 171.714,151.703 170.538 C 151.980 169.362,153.011 167.500,153.994 166.400 C 154.978 165.300,156.196 163.163,156.701 161.652 C 157.207 160.141,158.245 158.214,159.010 157.372 C 160.419 155.819,162.297 152.474,165.863 145.168 C 166.946 142.950,168.350 140.706,168.984 140.179 C 169.618 139.653,170.637 137.688,171.248 135.811 C 171.859 133.935,173.151 131.766,174.118 130.990 C 175.086 130.215,176.109 128.524,176.393 127.232 C 176.677 125.940,177.964 123.555,179.254 121.931 C 180.545 120.308,181.600 118.517,181.600 117.951 C 181.600 115.013,185.689 112.000,189.675 112.000 L 193.607 112.000 193.404 197.400 L 193.200 282.800 190.239 283.046 L 187.277 283.292 187.039 209.446 C 186.788 131.809,186.803 132.140,183.346 130.813 C 182.051 130.316,178.482 133.940,178.429 135.805 C 178.413 136.358,177.528 137.569,176.461 138.496 C 175.395 139.423,174.046 141.796,173.464 143.768 C 172.881 145.741,171.803 147.677,171.067 148.071 C 170.330 148.465,169.285 150.140,168.743 151.794 C 168.201 153.447,166.954 155.880,165.971 157.200 C 164.989 158.520,163.915 160.500,163.583 161.600 C 163.252 162.700,162.130 164.618,161.090 165.862 C 160.050 167.106,158.972 169.086,158.695 170.262 C 158.417 171.438,157.535 173.124,156.734 174.010 C 155.933 174.895,154.530 177.311,153.616 179.377 C 152.702 181.443,151.565 183.375,151.088 183.669 C 150.611 183.964,149.400 186.063,148.395 188.334 C 147.391 190.606,146.026 192.914,145.363 193.465 C 144.700 194.015,143.930 195.370,143.653 196.476 C 143.375 197.581,142.080 199.960,140.774 201.763 C 139.468 203.565,138.400 205.564,138.400 206.205 C 138.400 206.845,137.510 208.427,136.421 209.721 C 135.333 211.014,134.016 213.496,133.495 215.236 C 132.973 216.976,132.251 218.400,131.890 218.400 C 131.059 218.400,128.000 224.331,128.000 225.940 C 128.000 226.602,127.309 227.514,126.464 227.966 C 125.619 228.418,124.508 230.060,123.995 231.614 C 123.482 233.169,122.243 235.422,121.241 236.620 C 120.239 237.819,119.152 239.700,118.825 240.800 C 116.772 247.714,107.200 256.871,107.200 251.921 C 107.200 251.438,106.182 250.088,104.938 248.921 C 103.694 247.754,102.019 245.073,101.215 242.962 C 100.411 240.852,99.137 238.794,98.383 238.391 C 97.628 237.987,96.803 236.614,96.548 235.340 C 96.293 234.066,95.215 231.983,94.152 230.712 C 93.089 229.440,91.949 227.500,91.620 226.400 C 91.290 225.300,90.204 223.500,89.207 222.400 C 88.209 221.300,86.971 219.079,86.456 217.464 C 85.940 215.849,84.992 214.092,84.350 213.558 C 83.707 213.025,82.448 210.931,81.552 208.904 C 80.655 206.878,79.269 204.495,78.472 203.610 C 77.674 202.724,76.621 200.803,76.132 199.340 C 75.642 197.877,74.332 195.600,73.221 194.279 C 72.109 192.958,71.200 191.392,71.200 190.800 C 71.200 190.208,70.374 188.705,69.364 187.461 C 68.355 186.218,66.870 183.691,66.064 181.847 C 65.259 180.003,64.175 178.331,63.656 178.132 C 63.137 177.933,62.228 176.304,61.637 174.513 C 61.046 172.721,59.716 170.460,58.681 169.488 C 57.647 168.516,56.800 167.118,56.800 166.381 C 56.800 165.643,55.765 163.611,54.500 161.865 C 53.235 160.118,51.934 157.814,51.610 156.745 C 51.286 155.675,50.204 153.900,49.207 152.800 C 48.209 151.700,46.962 149.451,46.435 147.802 C 45.909 146.154,44.874 144.354,44.135 143.802 C 43.397 143.251,42.075 141.029,41.197 138.865 C 40.184 136.369,38.722 134.404,37.200 133.492 C 35.880 132.701,34.208 131.690,33.484 131.244 C 30.008 129.104,30.023 128.817,29.600 207.912 C 29.157 290.872,29.627 284.183,24.337 282.856 L 22.400 282.370 22.400 197.185 L 22.400 112.000 27.516 112.000 C 32.613 112.000,32.639 112.012,34.220 115.000 " stroke="none" fill="#d0d0d0" fill-rule="evenodd"></path><path id="path3" d="M304.285 108.890 C 302.902 109.747,299.239 110.930,296.144 111.520 C 293.049 112.109,289.574 113.334,288.421 114.241 C 287.268 115.147,285.214 116.133,283.855 116.432 C 282.497 116.730,279.786 118.195,277.832 119.687 C 275.877 121.179,273.789 122.400,273.193 122.400 C 272.596 122.400,271.870 123.151,271.578 124.068 C 271.287 124.985,270.003 126.100,268.725 126.546 C 267.446 126.992,266.400 127.878,266.400 128.515 C 266.400 129.153,265.337 130.284,264.038 131.030 C 262.740 131.775,261.479 133.175,261.237 134.139 C 260.994 135.104,260.107 136.112,259.265 136.379 C 258.423 136.647,257.386 137.841,256.962 139.033 C 256.538 140.225,255.067 142.600,253.695 144.310 C 252.323 146.021,251.200 147.935,251.200 148.563 C 251.200 149.192,250.328 150.853,249.261 152.253 C 248.195 153.654,246.759 157.237,246.069 160.216 C 245.380 163.195,244.240 166.511,243.536 167.585 C 239.671 173.484,240.018 216.135,243.998 224.400 C 244.846 226.160,245.960 229.580,246.474 232.000 C 246.989 234.420,248.232 237.381,249.237 238.581 C 250.242 239.780,251.301 241.837,251.589 243.152 C 251.878 244.467,252.982 246.365,254.043 247.371 C 255.104 248.377,255.979 249.644,255.986 250.186 C 256.013 252.079,272.231 268.800,274.040 268.800 C 274.614 268.800,275.740 269.630,276.542 270.644 C 277.344 271.658,279.725 272.969,281.834 273.558 C 283.943 274.146,286.116 275.266,286.663 276.047 C 287.288 276.940,289.579 277.808,292.829 278.384 C 295.673 278.888,299.440 280.087,301.200 281.050 C 306.099 283.729,337.474 283.723,343.652 281.041 C 345.881 280.074,349.986 278.915,352.775 278.466 C 355.733 277.990,358.543 277.005,359.522 276.101 C 360.445 275.249,362.767 274.090,364.683 273.524 C 366.599 272.959,368.353 272.012,368.580 271.419 C 368.808 270.826,370.120 269.762,371.497 269.055 C 376.247 266.615,379.948 262.272,379.441 259.734 C 378.770 256.374,377.253 256.322,373.344 259.525 C 371.414 261.106,369.464 262.400,369.010 262.400 C 368.556 262.400,367.594 263.300,366.874 264.400 C 366.153 265.500,364.901 266.400,364.092 266.400 C 363.282 266.400,361.284 267.462,359.650 268.760 C 357.768 270.256,355.312 271.307,352.940 271.632 C 350.883 271.913,348.179 272.865,346.931 273.747 C 343.574 276.119,335.019 277.008,319.200 276.628 C 305.066 276.290,304.596 276.200,299.200 272.830 C 298.540 272.418,296.246 271.854,294.103 271.577 C 291.568 271.249,289.610 270.442,288.503 269.268 C 287.566 268.275,285.543 267.032,284.007 266.506 C 282.471 265.979,280.311 264.663,279.207 263.581 C 278.103 262.498,275.220 259.683,272.800 257.325 C 266.500 251.185,258.400 240.137,258.400 237.684 C 258.400 237.181,257.356 234.814,256.080 232.423 C 254.804 230.032,253.518 226.169,253.223 223.838 C 252.927 221.507,252.081 218.340,251.342 216.800 C 249.313 212.566,248.920 179.929,250.845 175.475 C 251.576 173.784,252.657 169.723,253.246 166.452 C 253.836 163.180,255.000 159.580,255.833 158.452 C 256.666 157.323,257.809 154.960,258.372 153.200 C 258.936 151.440,260.031 149.280,260.805 148.400 C 261.579 147.520,262.835 145.540,263.595 144.000 C 264.356 142.460,265.624 140.480,266.414 139.600 C 270.280 135.294,276.941 128.800,277.492 128.800 C 277.833 128.800,279.336 127.707,280.833 126.371 C 282.329 125.035,284.464 123.729,285.577 123.468 C 286.690 123.207,288.514 122.145,289.632 121.108 C 290.820 120.006,293.439 118.886,295.936 118.412 C 298.286 117.967,301.442 116.839,302.950 115.907 C 308.869 112.249,342.235 112.203,347.162 115.846 C 348.375 116.742,351.471 117.865,354.042 118.340 C 357.092 118.904,359.442 119.899,360.802 121.202 C 361.949 122.301,363.254 123.200,363.703 123.200 C 364.151 123.200,366.291 124.460,368.457 126.000 C 372.383 128.792,376.928 129.734,378.012 127.980 C 378.818 126.676,377.581 122.400,376.398 122.400 C 375.806 122.400,373.734 121.187,371.792 119.705 C 369.851 118.223,366.987 116.590,365.428 116.075 C 363.869 115.561,361.983 114.466,361.238 113.642 C 360.355 112.666,358.219 111.950,355.115 111.590 C 352.494 111.286,348.651 110.175,346.575 109.122 C 341.273 106.432,308.544 106.252,304.285 108.890 M22.400 197.185 L 22.400 282.370 24.337 282.856 C 29.627 284.183,29.157 290.872,29.600 207.912 C 30.023 128.817,30.008 129.104,33.484 131.244 C 34.208 131.690,35.880 132.701,37.200 133.492 C 38.722 134.404,40.184 136.369,41.197 138.865 C 42.075 141.029,43.397 143.251,44.135 143.802 C 44.874 144.354,45.909 146.154,46.435 147.802 C 46.962 149.451,48.209 151.700,49.207 152.800 C 50.204 153.900,51.286 155.675,51.610 156.745 C 51.934 157.814,53.235 160.118,54.500 161.865 C 55.765 163.611,56.800 165.643,56.800 166.381 C 56.800 167.118,57.647 168.516,58.681 169.488 C 59.716 170.460,61.046 172.721,61.637 174.513 C 62.228 176.304,63.137 177.933,63.656 178.132 C 64.175 178.331,65.259 180.003,66.064 181.847 C 66.870 183.691,68.355 186.218,69.364 187.461 C 70.374 188.705,71.200 190.208,71.200 190.800 C 71.200 191.392,72.109 192.958,73.221 194.279 C 74.332 195.600,75.642 197.877,76.132 199.340 C 76.621 200.803,77.674 202.724,78.472 203.610 C 79.269 204.495,80.655 206.878,81.552 208.904 C 82.448 210.931,83.707 213.025,84.350 213.558 C 84.992 214.092,85.940 215.849,86.456 217.464 C 86.971 219.079,88.209 221.300,89.207 222.400 C 90.204 223.500,91.290 225.300,91.620 226.400 C 91.949 227.500,93.089 229.440,94.152 230.712 C 95.215 231.983,96.293 234.066,96.548 235.340 C 96.803 236.614,97.628 237.987,98.383 238.391 C 99.137 238.794,100.411 240.852,101.215 242.962 C 102.019 245.073,103.694 247.754,104.938 248.921 C 106.182 250.088,107.200 251.438,107.200 251.921 C 107.200 256.871,116.772 247.714,118.825 240.800 C 119.152 239.700,120.239 237.819,121.241 236.620 C 122.243 235.422,123.482 233.169,123.995 231.614 C 124.508 230.060,125.619 228.418,126.464 227.966 C 127.309 227.514,128.000 226.602,128.000 225.940 C 128.000 224.331,131.059 218.400,131.890 218.400 C 132.251 218.400,132.973 216.976,133.495 215.236 C 134.016 213.496,135.333 211.014,136.421 209.721 C 137.510 208.427,138.400 206.845,138.400 206.205 C 138.400 205.564,139.468 203.565,140.774 201.763 C 142.080 199.960,143.375 197.581,143.653 196.476 C 143.930 195.370,144.700 194.015,145.363 193.465 C 146.026 192.914,147.391 190.606,148.395 188.334 C 149.400 186.063,150.611 183.964,151.088 183.669 C 151.565 183.375,152.702 181.443,153.616 179.377 C 154.530 177.311,155.933 174.895,156.734 174.010 C 157.535 173.124,158.417 171.438,158.695 170.262 C 158.972 169.086,160.050 167.106,161.090 165.862 C 162.130 164.618,163.252 162.700,163.583 161.600 C 163.915 160.500,164.989 158.520,165.971 157.200 C 166.954 155.880,168.201 153.447,168.743 151.794 C 169.285 150.140,170.330 148.465,171.067 148.071 C 171.803 147.677,172.881 145.741,173.464 143.768 C 174.046 141.796,175.395 139.423,176.461 138.496 C 177.528 137.569,178.413 136.358,178.429 135.805 C 178.482 133.940,182.051 130.316,183.346 130.813 C 186.803 132.140,186.788 131.809,187.039 209.446 L 187.277 283.292 190.239 283.046 L 193.200 282.800 193.404 197.400 L 193.607 112.000 189.675 112.000 C 185.689 112.000,181.600 115.013,181.600 117.951 C 181.600 118.517,180.545 120.308,179.254 121.931 C 177.964 123.555,176.677 125.940,176.393 127.232 C 176.109 128.524,175.086 130.215,174.118 130.990 C 173.151 131.766,171.859 133.935,171.248 135.811 C 170.637 137.688,169.618 139.653,168.984 140.179 C 168.350 140.706,166.946 142.950,165.863 145.168 C 162.297 152.474,160.419 155.819,159.010 157.372 C 158.245 158.214,157.207 160.141,156.701 161.652 C 156.196 163.163,154.978 165.300,153.994 166.400 C 153.011 167.500,151.980 169.362,151.703 170.538 C 151.427 171.714,150.358 173.694,149.328 174.938 C 148.298 176.182,147.047 178.397,146.549 179.860 C 146.050 181.323,144.732 183.600,143.621 184.921 C 142.509 186.242,141.600 187.781,141.600 188.341 C 141.600 188.902,140.532 190.835,139.226 192.637 C 137.920 194.440,136.630 196.800,136.358 197.881 C 136.087 198.963,134.995 200.665,133.932 201.664 C 132.870 202.662,132.000 203.944,132.000 204.512 C 132.000 205.967,129.426 211.200,128.710 211.200 C 128.384 211.200,127.179 213.090,126.032 215.400 C 124.885 217.710,122.827 221.580,121.458 224.000 C 120.089 226.420,117.851 230.560,116.484 233.200 C 114.581 236.878,113.268 238.357,110.869 239.528 L 107.738 241.057 105.831 238.840 C 104.783 237.621,103.714 235.570,103.457 234.283 C 103.199 232.996,102.348 231.600,101.564 231.181 C 100.780 230.761,99.494 228.704,98.706 226.609 C 97.917 224.514,96.626 222.330,95.836 221.755 C 95.046 221.180,94.400 220.230,94.400 219.644 C 94.400 219.059,93.190 216.821,91.711 214.671 C 90.233 212.521,88.744 209.871,88.402 208.781 C 88.060 207.692,86.911 205.760,85.848 204.488 C 84.785 203.217,83.707 201.134,83.452 199.860 C 83.197 198.585,82.356 197.100,81.583 196.558 C 80.810 196.017,79.603 194.198,78.900 192.515 C 78.197 190.833,76.717 188.382,75.611 187.067 C 74.505 185.753,73.600 183.999,73.600 183.170 C 73.600 182.341,72.893 181.004,72.029 180.199 C 71.165 179.394,69.715 177.055,68.806 175.001 C 67.898 172.947,66.764 171.025,66.287 170.730 C 65.809 170.435,64.695 168.530,63.811 166.497 C 62.926 164.464,61.708 162.232,61.103 161.539 C 60.086 160.373,58.427 157.431,54.141 149.200 C 53.225 147.440,52.179 145.877,51.816 145.726 C 50.953 145.368,48.000 139.563,48.000 138.224 C 48.000 137.653,47.343 136.774,46.539 136.273 C 45.736 135.771,44.415 133.614,43.603 131.480 C 42.791 129.346,41.657 127.240,41.082 126.800 C 40.507 126.360,39.085 124.200,37.922 122.000 C 31.988 110.775,33.262 112.000,27.516 112.000 L 22.400 112.000 22.400 197.185 " stroke="none" fill="#f4f4f4" fill-rule="evenodd"></path><path id="path4" d="M0.000 20.000 L 0.000 40.000 200.000 40.000 L 400.000 40.000 400.000 20.000 L 400.000 0.000 200.000 0.000 L 0.000 0.000 0.000 20.000 M0.000 377.600 L 0.000 400.000 200.000 400.000 L 400.000 400.000 400.000 377.600 L 400.000 355.200 200.000 355.200 L 0.000 355.200 0.000 377.600 " stroke="none" fill="#007bcb" fill-rule="evenodd"></path></g></svg>